<?xml version="1.0" encoding="UTF-8"?>
<!-- Generated by jsxcad -->
<!DOCTYPE svg PUBLIC "-//W3C//DTD SVG 1.1 Tiny//EN" "http://www.w3.org/Graphics/SVG/1.1/DTD/svg11-tiny.dtd">
<svg viewBox="-250 -250 500 500" width="500" height="500" xmlns="http://www.w3.org/2000/svg"><path d="M66.67453260776215,-53.20061822535982L110.20074804458487,67.96286079414881L112.69912360442481,54.14197706754995z" style="fill:rgb(244,137,177)"/><path d="M3.648898095842893e-15,0.10413249425225951L-3.8256879357742566,94.6698314283437L53.4413151748658,103.92777761198748z" style="fill:rgb(75,32,195)"/><path d="M63.34598691937774,-39.15420343470787L53.4413151748658,103.92777761198748L110.2007538843073,67.96284501304673z" style="fill:rgb(179,59,222)"/><path d="M21.387945023371845,-223.74965346420055L112.69912360442481,54.14197706754995L119.38320628772341,17.166012450221984z" style="fill:rgb(244,137,177)"/><path d="M3.648898095842893e-15,0.10413249425225951L-61.422892746084166,-6.346068235203897L-3.8256879357742566,94.6698314283437z" style="fill:rgb(75,32,195)"/><path d="M66.67453260776215,-53.20061822535982L63.34598368344192,-39.15418753165593L110.20074804458487,67.96286079414881z" style="fill:rgb(244,137,177)"/><path d="M63.34598691937774,-39.15420343470787L3.648898095842893e-15,0.10413249425225951L53.4413151748658,103.92777761198748z" style="fill:rgb(179,59,222)"/><path d="M3.648898095842893e-15,0.10413249425225951L-64.54741610501216,-18.275418608097503L-61.422892746084166,-6.346068235203897z" style="fill:rgb(83,212,212)"/><path d="M66.26792953063116,7.063110350721231L120.2278450150822,127.30933787890488L114.75926690071913,113.84059005697593z" style="fill:rgb(244,177,137)"/><path d="M3.648898095842893e-15,0.10413249425225951L66.67452617386955,-53.20059114044519L-64.54741610501216,-18.275418608097503z" style="fill:rgb(83,212,212)"/><path d="M39.69391008714666,-116.1271551331476L-64.54741610501216,-18.275418608097503L66.67452617386955,-53.20059114044519z" style="fill:rgb(127,37,217)"/><path d="M3.648898095842893e-15,0.10413249425225951L63.34598691937774,-39.15420343470787L66.67452617386955,-53.20059114044519z" style="fill:rgb(83,212,212)"/><path d="M39.69391008714666,-116.1271551331476L-97.90824690316425,-77.14299395996478L-64.54741610501216,-18.275418608097503z" style="fill:rgb(127,37,217)"/><path d="M6.392588519329722e-15,0.1041324942522588L-64.16627967991363,39.87084046569392L-69.19846049102541,55.42668256085091z" style="fill:rgb(83,212,212)"/><path d="M66.26792953063116,7.063110350721231L71.64898758471134,20.505846138432158L120.2278450150822,127.30933787890488z" style="fill:rgb(244,177,137)"/><path d="M21.387945023371845,-223.74965346420055L9.422380176264962,-186.72912224551254L112.69912360442481,54.14197706754995z" style="fill:rgb(244,137,177)"/><path d="M6.392588519329722e-15,0.1041324942522588L-69.19846049102541,55.42668256085091L71.6489767509732,20.505817164063938zM-132.77726858236534,-131.48974758757308L-24.158463336735768,-242.7759490066743L-93.79803476334622,-220.54042424632135zM-132.77726858236534,-131.48974758757308L-93.79803476334622,-220.54042424632135L-141.5536959719008,-173.06791158207332zM6.392588519329722e-15,0.1041324942522588L71.6489767509732,20.505817164063938L66.2679349266202,7.063125519381136z" style="fill:rgb(83,212,212)"/><path d="M10.218354463123477,-114.55303415787645L136.26369567481595,166.80456400072953L120.2278450150822,127.30933787890488z" style="fill:rgb(244,177,137)"/><path d="M23.8011927705901,239.39235043110054L-165.92604283009956,-23.609531312342856L-19.030178606827608,199.28072775289536z" style="fill:rgb(33,47,159)"/><path d="M-132.77726858236534,-131.48974758757308L21.38794089998138,-223.74963872169337L-24.158463336735768,-242.7759490066743z" style="fill:rgb(83,212,212)"/><path d="M9.422380176264962,-186.72912224551254L35.82712168508608,-102.0664439811729L39.69391753257547,-116.12717755175609z" style="fill:rgb(244,137,177)"/><path d="M-66.75048576124294,-129.57603578819175L-95.08974030133024,-65.39210401407182L-31.419070191584513,-60.935577752895014zM-66.75048576124294,-129.57603578819175L-132.77726858236534,-131.48974758757308L-95.08974030133024,-65.39210401407182z" style="fill:rgb(75,32,195)"/><path d="M4.906191399879905,-172.75636683278367L-31.419070191584513,-60.935577752895014L35.827127762084714,-102.06646010336952z" style="fill:rgb(179,59,222)"/><path d="M-132.77726858236534,-131.48974758757308L4.906191399879905,-172.75636683278367L21.38794089998138,-223.74963872169337z" style="fill:rgb(83,212,212)"/><path d="M9.422380176264962,-186.72912224551254L4.906186289804798,-172.75635142182935L35.82712168508608,-102.0664439811729z" style="fill:rgb(244,137,177)"/><path d="M95.70014250891627,225.22308703487573L-120.53624336104039,13.374280287600175L23.8011927705901,239.39235043110054z" style="fill:rgb(127,37,217)"/><path d="M136.26367704140569,166.80454483319008L-31.20181548524629,-10.021284365382447L95.70014250891627,225.22308703487573z" style="fill:rgb(221,95,207)"/><path d="M4.906191399879905,-172.75636683278367L-66.75048576124294,-129.57603578819175L-31.419070191584513,-60.935577752895014z" style="fill:rgb(179,59,222)"/><path d="M-132.77726858236534,-131.48974758757308L-66.75048576124294,-129.57603578819175L4.906191399879905,-172.75636683278367z" style="fill:rgb(83,212,212)"/><path d="M5.161928752606173,-127.49174045788995L42.83912001956891,-42.83435280356352L37.580625309334536,-56.10606684354885zM10.218354463123477,-114.55303415787645L25.25188759685793,-76.08425973514447L136.26369567481595,166.80456400072953z" style="fill:rgb(244,177,137)"/><path d="M5.161934317046698,-127.49172339842157L-66.75048576124294,-129.57603578819175L-139.45145786032157,-85.76639067117848z" style="fill:rgb(83,212,212)"/><path d="M23.8011927705901,239.39235043110054L-120.53624336104039,13.374280287600175L-165.92604283009956,-23.609531312342856z" style="fill:rgb(33,47,159)"/><path d="M5.161928752606173,-127.49174045788995L10.218354463123477,-114.55303415787645L42.83912001956891,-42.83435280356352z" style="fill:rgb(244,177,137)"/><path d="M5.161934317046698,-127.49172339842157L-139.45145786032157,-85.76639067117848L-165.92604283009956,-23.609531312342856z" style="fill:rgb(83,212,212)"/><path d="M136.26367704140569,166.80454483319008L25.251881905547496,-76.08427378081602L-31.20181548524629,-10.021284365382447z" style="fill:rgb(221,95,207)"/><path d="M95.70014250891627,225.22308703487573L-31.20181548524629,-10.021284365382447L-120.53624336104039,13.374280287600175z" style="fill:rgb(127,37,217)"/><path d="M5.161934317046698,-127.49172339842157L-165.92604283009956,-23.609531312342856L-120.53624336104039,13.374280287600175zM5.161934317046698,-127.49172339842157L-31.20181548524629,-10.021284365382447L25.251881905547496,-76.08427378081602zM5.161934317046698,-127.49172339842157L-120.53624336104039,13.374280287600175L-31.20181548524629,-10.021284365382447z" style="fill:rgb(83,212,212)"/></svg>
